# xmcd
#
# Track frame offsets:
#   150
#   10017
#   21112
#   29502
#   46660
#   57057
#   67595
#   77100
#   86902
#   93565
#   102050
#   122820
#   134882
#   145072
#   162970
#
# Disc length: 2365 seconds
#
# Revision: 0
# Processed by: cddbd v1.5.1PL0 Copyright (c) Steve Scherf et al.
# Submitted via: uFREEDB ActiveX Control 1.5
#
DISCID=bd093b0f
DTITLE=Vieira e Vieirinha - Reis da Catira Vol 2
DYEAR=2005
DGENRE=Country
TTITLE0=Coroa de espinho
TTITLE1=jogo da Douradina
TTITLE2=Ladrão de Mulher
TTITLE3=Sertão da ribeira
TTITLE4=Aproveite a Mocidade
TTITLE5=Sou carinhoso
TTITLE6=Coração de Ouro
TTITLE7=Recortado Paulista
TTITLE8=Rio de Ouro
TTITLE9=Chão Preto
TTITLE10=Quinze de Setembro
TTITLE11=Recorte moderno
TTITLE12=Boiadeiro de Goias
TTITLE13=Campeão de Rodeio
TTITLE14=VII exposição de fernandopolis
EXTD=
EXTT0=
EXTT1=
EXTT2=
EXTT3=
EXTT4=
EXTT5=
EXTT6=
EXTT7=
EXTT8=
EXTT9=
EXTT10=
EXTT11=
EXTT12=
EXTT13=
EXTT14=
PLAYORDER=
